<mxfile host="app.diagrams.net" modified="2024-04-17T18:21:05.392Z" agent="Mozilla/5.0 (Windows NT 10.0; Win64; x64) AppleWebKit/537.36 (KHTML, like Gecko) Chrome/123.0.0.0 Safari/537.36" etag="7cez4q5ONLfgLLlCL9ZZ" version="24.2.5" type="device">
  <diagram name="Page-1" id="GG0QzF6LFlVrDzn3O9K7">
    <mxGraphModel dx="1246" dy="469" grid="1" gridSize="10" guides="1" tooltips="1" connect="1" arrows="1" fold="1" page="1" pageScale="1" pageWidth="850" pageHeight="1100" math="0" shadow="0">
      <root>
        <mxCell id="0" />
        <mxCell id="1" parent="0" />
        <mxCell id="YnjSzZO8-QEwJyhuHPew-5" value="Caja" style="swimlane;fontStyle=1;align=center;verticalAlign=top;childLayout=stackLayout;horizontal=1;startSize=26;horizontalStack=0;resizeParent=1;resizeParentMax=0;resizeLast=0;collapsible=1;marginBottom=0;whiteSpace=wrap;html=1;" parent="1" vertex="1">
          <mxGeometry x="240" y="210" width="220" height="178" as="geometry" />
        </mxCell>
        <mxCell id="YnjSzZO8-QEwJyhuHPew-6" value="-productosAVender : List&amp;lt;Producto&amp;gt;&lt;div&gt;&lt;br&gt;&lt;/div&gt;" style="text;strokeColor=none;fillColor=none;align=left;verticalAlign=top;spacingLeft=4;spacingRight=4;overflow=hidden;rotatable=0;points=[[0,0.5],[1,0.5]];portConstraint=eastwest;whiteSpace=wrap;html=1;" parent="YnjSzZO8-QEwJyhuHPew-5" vertex="1">
          <mxGeometry y="26" width="220" height="64" as="geometry" />
        </mxCell>
        <mxCell id="YnjSzZO8-QEwJyhuHPew-7" value="" style="line;strokeWidth=1;fillColor=none;align=left;verticalAlign=middle;spacingTop=-1;spacingLeft=3;spacingRight=3;rotatable=0;labelPosition=right;points=[];portConstraint=eastwest;strokeColor=inherit;" parent="YnjSzZO8-QEwJyhuHPew-5" vertex="1">
          <mxGeometry y="90" width="220" height="8" as="geometry" />
        </mxCell>
        <mxCell id="YnjSzZO8-QEwJyhuHPew-8" value="+getPrecioTotalDeCompra(): Double&lt;div&gt;+confirmarCompra():void&lt;/div&gt;&lt;div&gt;+pagar(pagable): void&lt;/div&gt;" style="text;strokeColor=none;fillColor=none;align=left;verticalAlign=top;spacingLeft=4;spacingRight=4;overflow=hidden;rotatable=0;points=[[0,0.5],[1,0.5]];portConstraint=eastwest;whiteSpace=wrap;html=1;" parent="YnjSzZO8-QEwJyhuHPew-5" vertex="1">
          <mxGeometry y="98" width="220" height="80" as="geometry" />
        </mxCell>
        <mxCell id="YnjSzZO8-QEwJyhuHPew-9" value="producto" style="endArrow=block;endFill=1;html=1;edgeStyle=orthogonalEdgeStyle;align=left;verticalAlign=top;rounded=0;" parent="1" edge="1">
          <mxGeometry x="-0.125" y="-10" relative="1" as="geometry">
            <mxPoint x="460" y="270" as="sourcePoint" />
            <mxPoint x="620" y="270" as="targetPoint" />
            <mxPoint as="offset" />
          </mxGeometry>
        </mxCell>
        <mxCell id="YnjSzZO8-QEwJyhuHPew-10" value="x" style="edgeLabel;resizable=0;html=1;align=left;verticalAlign=bottom;" parent="YnjSzZO8-QEwJyhuHPew-9" connectable="0" vertex="1">
          <mxGeometry x="-1" relative="1" as="geometry">
            <mxPoint x="70" y="-2" as="offset" />
          </mxGeometry>
        </mxCell>
        <mxCell id="YnjSzZO8-QEwJyhuHPew-11" value="&lt;i&gt;Producto&lt;/i&gt;" style="swimlane;fontStyle=1;align=center;verticalAlign=top;childLayout=stackLayout;horizontal=1;startSize=26;horizontalStack=0;resizeParent=1;resizeParentMax=0;resizeLast=0;collapsible=1;marginBottom=0;whiteSpace=wrap;html=1;" parent="1" vertex="1">
          <mxGeometry x="620" y="210" width="200" height="178" as="geometry" />
        </mxCell>
        <mxCell id="YnjSzZO8-QEwJyhuHPew-12" value="&lt;div&gt;-precio : Double&lt;/div&gt;&lt;div&gt;-codigoId: int&lt;/div&gt;" style="text;strokeColor=none;fillColor=none;align=left;verticalAlign=top;spacingLeft=4;spacingRight=4;overflow=hidden;rotatable=0;points=[[0,0.5],[1,0.5]];portConstraint=eastwest;whiteSpace=wrap;html=1;" parent="YnjSzZO8-QEwJyhuHPew-11" vertex="1">
          <mxGeometry y="26" width="200" height="64" as="geometry" />
        </mxCell>
        <mxCell id="YnjSzZO8-QEwJyhuHPew-13" value="" style="line;strokeWidth=1;fillColor=none;align=left;verticalAlign=middle;spacingTop=-1;spacingLeft=3;spacingRight=3;rotatable=0;labelPosition=right;points=[];portConstraint=eastwest;strokeColor=inherit;" parent="YnjSzZO8-QEwJyhuHPew-11" vertex="1">
          <mxGeometry y="90" width="200" height="8" as="geometry" />
        </mxCell>
        <mxCell id="YnjSzZO8-QEwJyhuHPew-14" value="+getPrecio(self): Double.&amp;nbsp;&lt;div&gt;+getID(): int&lt;/div&gt;" style="text;strokeColor=none;fillColor=none;align=left;verticalAlign=top;spacingLeft=4;spacingRight=4;overflow=hidden;rotatable=0;points=[[0,0.5],[1,0.5]];portConstraint=eastwest;whiteSpace=wrap;html=1;" parent="YnjSzZO8-QEwJyhuHPew-11" vertex="1">
          <mxGeometry y="98" width="200" height="80" as="geometry" />
        </mxCell>
        <mxCell id="YnjSzZO8-QEwJyhuHPew-16" value="Extends" style="endArrow=block;endSize=16;endFill=0;html=1;rounded=0;" parent="1" edge="1">
          <mxGeometry x="0.1429" y="10" width="160" relative="1" as="geometry">
            <mxPoint x="890" y="290" as="sourcePoint" />
            <mxPoint x="820" y="290" as="targetPoint" />
            <mxPoint as="offset" />
          </mxGeometry>
        </mxCell>
        <mxCell id="YnjSzZO8-QEwJyhuHPew-18" value="Extends" style="endArrow=block;endSize=16;endFill=0;html=1;rounded=0;entryX=1.014;entryY=0.59;entryDx=0;entryDy=0;entryPerimeter=0;exitX=-0.012;exitY=0.325;exitDx=0;exitDy=0;exitPerimeter=0;" parent="1" source="YnjSzZO8-QEwJyhuHPew-25" target="YnjSzZO8-QEwJyhuHPew-14" edge="1">
          <mxGeometry x="-0.2" y="10" width="160" relative="1" as="geometry">
            <mxPoint x="880" y="350" as="sourcePoint" />
            <mxPoint x="850" y="338" as="targetPoint" />
            <mxPoint as="offset" />
          </mxGeometry>
        </mxCell>
        <mxCell id="YnjSzZO8-QEwJyhuHPew-19" value="ProdCooperativa" style="swimlane;fontStyle=1;align=center;verticalAlign=top;childLayout=stackLayout;horizontal=1;startSize=26;horizontalStack=0;resizeParent=1;resizeParentMax=0;resizeLast=0;collapsible=1;marginBottom=0;whiteSpace=wrap;html=1;" parent="1" vertex="1">
          <mxGeometry x="890" y="120" width="200" height="178" as="geometry" />
        </mxCell>
        <mxCell id="YnjSzZO8-QEwJyhuHPew-20" value="&lt;div&gt;&lt;br&gt;&lt;/div&gt;" style="text;strokeColor=none;fillColor=none;align=left;verticalAlign=top;spacingLeft=4;spacingRight=4;overflow=hidden;rotatable=0;points=[[0,0.5],[1,0.5]];portConstraint=eastwest;whiteSpace=wrap;html=1;" parent="YnjSzZO8-QEwJyhuHPew-19" vertex="1">
          <mxGeometry y="26" width="200" height="64" as="geometry" />
        </mxCell>
        <mxCell id="YnjSzZO8-QEwJyhuHPew-21" value="" style="line;strokeWidth=1;fillColor=none;align=left;verticalAlign=middle;spacingTop=-1;spacingLeft=3;spacingRight=3;rotatable=0;labelPosition=right;points=[];portConstraint=eastwest;strokeColor=inherit;" parent="YnjSzZO8-QEwJyhuHPew-19" vertex="1">
          <mxGeometry y="90" width="200" height="8" as="geometry" />
        </mxCell>
        <mxCell id="YnjSzZO8-QEwJyhuHPew-22" value="+getPrecio(self): Double.&amp;nbsp;" style="text;strokeColor=none;fillColor=none;align=left;verticalAlign=top;spacingLeft=4;spacingRight=4;overflow=hidden;rotatable=0;points=[[0,0.5],[1,0.5]];portConstraint=eastwest;whiteSpace=wrap;html=1;" parent="YnjSzZO8-QEwJyhuHPew-19" vertex="1">
          <mxGeometry y="98" width="200" height="80" as="geometry" />
        </mxCell>
        <mxCell id="YnjSzZO8-QEwJyhuHPew-24" value="ProdTradicional" style="swimlane;fontStyle=1;align=center;verticalAlign=top;childLayout=stackLayout;horizontal=1;startSize=26;horizontalStack=0;resizeParent=1;resizeParentMax=0;resizeLast=0;collapsible=1;marginBottom=0;whiteSpace=wrap;html=1;" parent="1" vertex="1">
          <mxGeometry x="890" y="310" width="200" height="98" as="geometry" />
        </mxCell>
        <mxCell id="YnjSzZO8-QEwJyhuHPew-25" value="&lt;div&gt;&lt;br&gt;&lt;/div&gt;" style="text;strokeColor=none;fillColor=none;align=left;verticalAlign=top;spacingLeft=4;spacingRight=4;overflow=hidden;rotatable=0;points=[[0,0.5],[1,0.5]];portConstraint=eastwest;whiteSpace=wrap;html=1;" parent="YnjSzZO8-QEwJyhuHPew-24" vertex="1">
          <mxGeometry y="26" width="200" height="64" as="geometry" />
        </mxCell>
        <mxCell id="YnjSzZO8-QEwJyhuHPew-26" value="" style="line;strokeWidth=1;fillColor=none;align=left;verticalAlign=middle;spacingTop=-1;spacingLeft=3;spacingRight=3;rotatable=0;labelPosition=right;points=[];portConstraint=eastwest;strokeColor=inherit;" parent="YnjSzZO8-QEwJyhuHPew-24" vertex="1">
          <mxGeometry y="90" width="200" height="8" as="geometry" />
        </mxCell>
        <mxCell id="3-H1_b2CFHMAt_Jb_pcu-1" value="MercadoCentral" style="swimlane;fontStyle=1;align=center;verticalAlign=top;childLayout=stackLayout;horizontal=1;startSize=26;horizontalStack=0;resizeParent=1;resizeParentMax=0;resizeLast=0;collapsible=1;marginBottom=0;whiteSpace=wrap;html=1;" parent="1" vertex="1">
          <mxGeometry x="435" y="30" width="210" height="140" as="geometry" />
        </mxCell>
        <mxCell id="3-H1_b2CFHMAt_Jb_pcu-2" value="stockProductos : List&amp;lt;Producto&amp;gt;" style="text;strokeColor=none;fillColor=none;align=left;verticalAlign=top;spacingLeft=4;spacingRight=4;overflow=hidden;rotatable=0;points=[[0,0.5],[1,0.5]];portConstraint=eastwest;whiteSpace=wrap;html=1;" parent="3-H1_b2CFHMAt_Jb_pcu-1" vertex="1">
          <mxGeometry y="26" width="210" height="26" as="geometry" />
        </mxCell>
        <mxCell id="3-H1_b2CFHMAt_Jb_pcu-3" value="" style="line;strokeWidth=1;fillColor=none;align=left;verticalAlign=middle;spacingTop=-1;spacingLeft=3;spacingRight=3;rotatable=0;labelPosition=right;points=[];portConstraint=eastwest;strokeColor=inherit;" parent="3-H1_b2CFHMAt_Jb_pcu-1" vertex="1">
          <mxGeometry y="52" width="210" height="8" as="geometry" />
        </mxCell>
        <mxCell id="3-H1_b2CFHMAt_Jb_pcu-4" value="+setProductoStock(): void&lt;div&gt;+ajustarStock(): void&lt;/div&gt;" style="text;strokeColor=none;fillColor=none;align=left;verticalAlign=top;spacingLeft=4;spacingRight=4;overflow=hidden;rotatable=0;points=[[0,0.5],[1,0.5]];portConstraint=eastwest;whiteSpace=wrap;html=1;" parent="3-H1_b2CFHMAt_Jb_pcu-1" vertex="1">
          <mxGeometry y="60" width="210" height="80" as="geometry" />
        </mxCell>
        <mxCell id="3-H1_b2CFHMAt_Jb_pcu-5" value="caja" style="endArrow=block;endFill=1;html=1;edgeStyle=orthogonalEdgeStyle;align=left;verticalAlign=top;rounded=0;" parent="1" edge="1">
          <mxGeometry x="-0.125" y="-10" relative="1" as="geometry">
            <mxPoint x="430" y="70" as="sourcePoint" />
            <mxPoint x="340" y="210" as="targetPoint" />
            <mxPoint as="offset" />
            <Array as="points">
              <mxPoint x="340" y="70" />
              <mxPoint x="340" y="197" />
            </Array>
          </mxGeometry>
        </mxCell>
        <mxCell id="3-H1_b2CFHMAt_Jb_pcu-6" value="x" style="edgeLabel;resizable=0;html=1;align=left;verticalAlign=bottom;" parent="3-H1_b2CFHMAt_Jb_pcu-5" connectable="0" vertex="1">
          <mxGeometry x="-1" relative="1" as="geometry">
            <mxPoint x="70" y="-2" as="offset" />
          </mxGeometry>
        </mxCell>
        <mxCell id="3-H1_b2CFHMAt_Jb_pcu-7" value="producto" style="endArrow=block;endFill=1;html=1;edgeStyle=orthogonalEdgeStyle;align=left;verticalAlign=top;rounded=0;entryX=0.39;entryY=-0.016;entryDx=0;entryDy=0;entryPerimeter=0;exitX=1.009;exitY=1.138;exitDx=0;exitDy=0;exitPerimeter=0;" parent="1" source="3-H1_b2CFHMAt_Jb_pcu-2" edge="1">
          <mxGeometry x="-0.125" y="-10" relative="1" as="geometry">
            <mxPoint x="820" y="83" as="sourcePoint" />
            <mxPoint x="728" y="210" as="targetPoint" />
            <mxPoint as="offset" />
            <Array as="points">
              <mxPoint x="647" y="83" />
              <mxPoint x="728" y="83" />
            </Array>
          </mxGeometry>
        </mxCell>
        <mxCell id="3-H1_b2CFHMAt_Jb_pcu-8" value="x" style="edgeLabel;resizable=0;html=1;align=left;verticalAlign=bottom;" parent="3-H1_b2CFHMAt_Jb_pcu-7" connectable="0" vertex="1">
          <mxGeometry x="-1" relative="1" as="geometry">
            <mxPoint x="70" y="-2" as="offset" />
          </mxGeometry>
        </mxCell>
        <mxCell id="3-H1_b2CFHMAt_Jb_pcu-9" value="1" style="edgeLabel;resizable=0;html=1;align=left;verticalAlign=bottom;" parent="1" connectable="0" vertex="1">
          <mxGeometry x="540" y="278" as="geometry">
            <mxPoint x="-138" y="-202" as="offset" />
          </mxGeometry>
        </mxCell>
        <mxCell id="3-H1_b2CFHMAt_Jb_pcu-10" value="cliente" style="endArrow=block;endFill=1;html=1;edgeStyle=orthogonalEdgeStyle;align=left;verticalAlign=top;rounded=0;" parent="1" edge="1">
          <mxGeometry x="-0.125" y="-10" relative="1" as="geometry">
            <mxPoint x="435" y="110" as="sourcePoint" />
            <mxPoint x="90" y="210" as="targetPoint" />
            <mxPoint as="offset" />
            <Array as="points">
              <mxPoint x="90" y="110" />
            </Array>
          </mxGeometry>
        </mxCell>
        <mxCell id="3-H1_b2CFHMAt_Jb_pcu-11" value="x" style="edgeLabel;resizable=0;html=1;align=left;verticalAlign=bottom;" parent="3-H1_b2CFHMAt_Jb_pcu-10" connectable="0" vertex="1">
          <mxGeometry x="-1" relative="1" as="geometry">
            <mxPoint x="70" y="-2" as="offset" />
          </mxGeometry>
        </mxCell>
        <mxCell id="3-H1_b2CFHMAt_Jb_pcu-12" value="Cliente" style="swimlane;fontStyle=1;align=center;verticalAlign=top;childLayout=stackLayout;horizontal=1;startSize=26;horizontalStack=0;resizeParent=1;resizeParentMax=0;resizeLast=0;collapsible=1;marginBottom=0;whiteSpace=wrap;html=1;" parent="1" vertex="1">
          <mxGeometry x="10" y="210" width="230" height="176" as="geometry" />
        </mxCell>
        <mxCell id="3-H1_b2CFHMAt_Jb_pcu-13" value="&lt;div&gt;-productosALlevar&lt;/div&gt;" style="text;strokeColor=none;fillColor=none;align=left;verticalAlign=top;spacingLeft=4;spacingRight=4;overflow=hidden;rotatable=0;points=[[0,0.5],[1,0.5]];portConstraint=eastwest;whiteSpace=wrap;html=1;" parent="3-H1_b2CFHMAt_Jb_pcu-12" vertex="1">
          <mxGeometry y="26" width="230" height="64" as="geometry" />
        </mxCell>
        <mxCell id="3-H1_b2CFHMAt_Jb_pcu-14" value="" style="line;strokeWidth=1;fillColor=none;align=left;verticalAlign=middle;spacingTop=-1;spacingLeft=3;spacingRight=3;rotatable=0;labelPosition=right;points=[];portConstraint=eastwest;strokeColor=inherit;" parent="3-H1_b2CFHMAt_Jb_pcu-12" vertex="1">
          <mxGeometry y="90" width="230" height="8" as="geometry" />
        </mxCell>
        <mxCell id="3-H1_b2CFHMAt_Jb_pcu-15" value="+setProductosALlevar(): void&lt;div&gt;+getPoductosDelCliente(): List&amp;lt;Producto&amp;gt;&lt;/div&gt;" style="text;strokeColor=none;fillColor=none;align=left;verticalAlign=top;spacingLeft=4;spacingRight=4;overflow=hidden;rotatable=0;points=[[0,0.5],[1,0.5]];portConstraint=eastwest;whiteSpace=wrap;html=1;" parent="3-H1_b2CFHMAt_Jb_pcu-12" vertex="1">
          <mxGeometry y="98" width="230" height="78" as="geometry" />
        </mxCell>
        <mxCell id="3-H1_b2CFHMAt_Jb_pcu-17" value="x" style="edgeLabel;resizable=0;html=1;align=left;verticalAlign=bottom;" parent="1" connectable="0" vertex="1">
          <mxGeometry x="540" y="278" as="geometry">
            <mxPoint x="-316" y="-174" as="offset" />
          </mxGeometry>
        </mxCell>
        <mxCell id="3-H1_b2CFHMAt_Jb_pcu-18" value="caja" style="endArrow=block;endFill=1;html=1;edgeStyle=orthogonalEdgeStyle;align=left;verticalAlign=top;rounded=0;exitX=0.644;exitY=1.05;exitDx=0;exitDy=0;exitPerimeter=0;" parent="1" source="3-H1_b2CFHMAt_Jb_pcu-15" edge="1">
          <mxGeometry x="-0.1096" y="-10" relative="1" as="geometry">
            <mxPoint x="150" y="441" as="sourcePoint" />
            <mxPoint x="310" y="390" as="targetPoint" />
            <mxPoint as="offset" />
            <Array as="points">
              <mxPoint x="152" y="420" />
              <mxPoint x="310" y="420" />
            </Array>
          </mxGeometry>
        </mxCell>
        <mxCell id="3-H1_b2CFHMAt_Jb_pcu-19" value="1" style="edgeLabel;resizable=0;html=1;align=left;verticalAlign=bottom;rotation=90;" parent="3-H1_b2CFHMAt_Jb_pcu-18" connectable="0" vertex="1">
          <mxGeometry x="-1" relative="1" as="geometry">
            <mxPoint x="48" y="28" as="offset" />
          </mxGeometry>
        </mxCell>
        <mxCell id="RbBr-SZmx4rrmUSp0C_k-1" value="&amp;lt;&amp;lt;interface&amp;gt;&amp;gt;&lt;div&gt;pagable&lt;/div&gt;" style="swimlane;fontStyle=1;align=center;verticalAlign=top;childLayout=stackLayout;horizontal=1;startSize=50;horizontalStack=0;resizeParent=1;resizeParentMax=0;resizeLast=0;collapsible=1;marginBottom=0;whiteSpace=wrap;html=1;" parent="1" vertex="1">
          <mxGeometry x="440" y="450" width="190" height="174" as="geometry">
            <mxRectangle x="460" y="500" width="110" height="40" as="alternateBounds" />
          </mxGeometry>
        </mxCell>
        <mxCell id="RbBr-SZmx4rrmUSp0C_k-2" value="+ field: type&lt;div&gt;&lt;br&gt;&lt;/div&gt;&lt;div&gt;&lt;br&gt;&lt;/div&gt;&lt;div&gt;-&lt;/div&gt;" style="text;strokeColor=none;fillColor=none;align=left;verticalAlign=top;spacingLeft=4;spacingRight=4;overflow=hidden;rotatable=0;points=[[0,0.5],[1,0.5]];portConstraint=eastwest;whiteSpace=wrap;html=1;" parent="RbBr-SZmx4rrmUSp0C_k-1" vertex="1">
          <mxGeometry y="50" width="190" height="74" as="geometry" />
        </mxCell>
        <mxCell id="RbBr-SZmx4rrmUSp0C_k-3" value="" style="line;strokeWidth=1;fillColor=none;align=left;verticalAlign=middle;spacingTop=-1;spacingLeft=3;spacingRight=3;rotatable=0;labelPosition=right;points=[];portConstraint=eastwest;strokeColor=inherit;" parent="RbBr-SZmx4rrmUSp0C_k-1" vertex="1">
          <mxGeometry y="124" width="190" height="8" as="geometry" />
        </mxCell>
        <mxCell id="RbBr-SZmx4rrmUSp0C_k-4" value="+ method(type): type" style="text;strokeColor=none;fillColor=none;align=left;verticalAlign=top;spacingLeft=4;spacingRight=4;overflow=hidden;rotatable=0;points=[[0,0.5],[1,0.5]];portConstraint=eastwest;whiteSpace=wrap;html=1;" parent="RbBr-SZmx4rrmUSp0C_k-1" vertex="1">
          <mxGeometry y="132" width="190" height="42" as="geometry" />
        </mxCell>
        <mxCell id="RbBr-SZmx4rrmUSp0C_k-9" value="Factura&lt;div&gt;&lt;br&gt;&lt;/div&gt;" style="swimlane;fontStyle=1;align=center;verticalAlign=top;childLayout=stackLayout;horizontal=1;startSize=26;horizontalStack=0;resizeParent=1;resizeParentMax=0;resizeLast=0;collapsible=1;marginBottom=0;whiteSpace=wrap;html=1;" parent="1" vertex="1">
          <mxGeometry x="455" y="670" width="160" height="86" as="geometry" />
        </mxCell>
        <mxCell id="RbBr-SZmx4rrmUSp0C_k-10" value="+ field: type" style="text;strokeColor=none;fillColor=none;align=left;verticalAlign=top;spacingLeft=4;spacingRight=4;overflow=hidden;rotatable=0;points=[[0,0.5],[1,0.5]];portConstraint=eastwest;whiteSpace=wrap;html=1;" parent="RbBr-SZmx4rrmUSp0C_k-9" vertex="1">
          <mxGeometry y="26" width="160" height="26" as="geometry" />
        </mxCell>
        <mxCell id="RbBr-SZmx4rrmUSp0C_k-11" value="" style="line;strokeWidth=1;fillColor=none;align=left;verticalAlign=middle;spacingTop=-1;spacingLeft=3;spacingRight=3;rotatable=0;labelPosition=right;points=[];portConstraint=eastwest;strokeColor=inherit;" parent="RbBr-SZmx4rrmUSp0C_k-9" vertex="1">
          <mxGeometry y="52" width="160" height="8" as="geometry" />
        </mxCell>
        <mxCell id="RbBr-SZmx4rrmUSp0C_k-12" value="+ method(type): type" style="text;strokeColor=none;fillColor=none;align=left;verticalAlign=top;spacingLeft=4;spacingRight=4;overflow=hidden;rotatable=0;points=[[0,0.5],[1,0.5]];portConstraint=eastwest;whiteSpace=wrap;html=1;" parent="RbBr-SZmx4rrmUSp0C_k-9" vertex="1">
          <mxGeometry y="60" width="160" height="26" as="geometry" />
        </mxCell>
        <mxCell id="RbBr-SZmx4rrmUSp0C_k-13" value="Impuesto" style="swimlane;fontStyle=1;align=center;verticalAlign=top;childLayout=stackLayout;horizontal=1;startSize=26;horizontalStack=0;resizeParent=1;resizeParentMax=0;resizeLast=0;collapsible=1;marginBottom=0;whiteSpace=wrap;html=1;" parent="1" vertex="1">
          <mxGeometry x="630" y="690" width="160" height="86" as="geometry" />
        </mxCell>
        <mxCell id="RbBr-SZmx4rrmUSp0C_k-14" value="+ field: type" style="text;strokeColor=none;fillColor=none;align=left;verticalAlign=top;spacingLeft=4;spacingRight=4;overflow=hidden;rotatable=0;points=[[0,0.5],[1,0.5]];portConstraint=eastwest;whiteSpace=wrap;html=1;" parent="RbBr-SZmx4rrmUSp0C_k-13" vertex="1">
          <mxGeometry y="26" width="160" height="26" as="geometry" />
        </mxCell>
        <mxCell id="RbBr-SZmx4rrmUSp0C_k-15" value="" style="line;strokeWidth=1;fillColor=none;align=left;verticalAlign=middle;spacingTop=-1;spacingLeft=3;spacingRight=3;rotatable=0;labelPosition=right;points=[];portConstraint=eastwest;strokeColor=inherit;" parent="RbBr-SZmx4rrmUSp0C_k-13" vertex="1">
          <mxGeometry y="52" width="160" height="8" as="geometry" />
        </mxCell>
        <mxCell id="RbBr-SZmx4rrmUSp0C_k-16" value="+ method(type): type" style="text;strokeColor=none;fillColor=none;align=left;verticalAlign=top;spacingLeft=4;spacingRight=4;overflow=hidden;rotatable=0;points=[[0,0.5],[1,0.5]];portConstraint=eastwest;whiteSpace=wrap;html=1;" parent="RbBr-SZmx4rrmUSp0C_k-13" vertex="1">
          <mxGeometry y="60" width="160" height="26" as="geometry" />
        </mxCell>
        <mxCell id="RbBr-SZmx4rrmUSp0C_k-17" value="Servicio" style="swimlane;fontStyle=1;align=center;verticalAlign=top;childLayout=stackLayout;horizontal=1;startSize=26;horizontalStack=0;resizeParent=1;resizeParentMax=0;resizeLast=0;collapsible=1;marginBottom=0;whiteSpace=wrap;html=1;" parent="1" vertex="1">
          <mxGeometry x="630" y="796" width="160" height="86" as="geometry" />
        </mxCell>
        <mxCell id="RbBr-SZmx4rrmUSp0C_k-18" value="+ field: type" style="text;strokeColor=none;fillColor=none;align=left;verticalAlign=top;spacingLeft=4;spacingRight=4;overflow=hidden;rotatable=0;points=[[0,0.5],[1,0.5]];portConstraint=eastwest;whiteSpace=wrap;html=1;" parent="RbBr-SZmx4rrmUSp0C_k-17" vertex="1">
          <mxGeometry y="26" width="160" height="26" as="geometry" />
        </mxCell>
        <mxCell id="RbBr-SZmx4rrmUSp0C_k-19" value="" style="line;strokeWidth=1;fillColor=none;align=left;verticalAlign=middle;spacingTop=-1;spacingLeft=3;spacingRight=3;rotatable=0;labelPosition=right;points=[];portConstraint=eastwest;strokeColor=inherit;" parent="RbBr-SZmx4rrmUSp0C_k-17" vertex="1">
          <mxGeometry y="52" width="160" height="8" as="geometry" />
        </mxCell>
        <mxCell id="RbBr-SZmx4rrmUSp0C_k-20" value="+ method(type): type" style="text;strokeColor=none;fillColor=none;align=left;verticalAlign=top;spacingLeft=4;spacingRight=4;overflow=hidden;rotatable=0;points=[[0,0.5],[1,0.5]];portConstraint=eastwest;whiteSpace=wrap;html=1;" parent="RbBr-SZmx4rrmUSp0C_k-17" vertex="1">
          <mxGeometry y="60" width="160" height="26" as="geometry" />
        </mxCell>
        <mxCell id="RbBr-SZmx4rrmUSp0C_k-21" value="Agencia" style="swimlane;fontStyle=1;align=center;verticalAlign=top;childLayout=stackLayout;horizontal=1;startSize=26;horizontalStack=0;resizeParent=1;resizeParentMax=0;resizeLast=0;collapsible=1;marginBottom=0;whiteSpace=wrap;html=1;" parent="1" vertex="1">
          <mxGeometry x="200" y="670" width="160" height="86" as="geometry" />
        </mxCell>
        <mxCell id="RbBr-SZmx4rrmUSp0C_k-22" value="+ field: type" style="text;strokeColor=none;fillColor=none;align=left;verticalAlign=top;spacingLeft=4;spacingRight=4;overflow=hidden;rotatable=0;points=[[0,0.5],[1,0.5]];portConstraint=eastwest;whiteSpace=wrap;html=1;" parent="RbBr-SZmx4rrmUSp0C_k-21" vertex="1">
          <mxGeometry y="26" width="160" height="26" as="geometry" />
        </mxCell>
        <mxCell id="RbBr-SZmx4rrmUSp0C_k-23" value="" style="line;strokeWidth=1;fillColor=none;align=left;verticalAlign=middle;spacingTop=-1;spacingLeft=3;spacingRight=3;rotatable=0;labelPosition=right;points=[];portConstraint=eastwest;strokeColor=inherit;" parent="RbBr-SZmx4rrmUSp0C_k-21" vertex="1">
          <mxGeometry y="52" width="160" height="8" as="geometry" />
        </mxCell>
        <mxCell id="RbBr-SZmx4rrmUSp0C_k-24" value="+ method(type): type" style="text;strokeColor=none;fillColor=none;align=left;verticalAlign=top;spacingLeft=4;spacingRight=4;overflow=hidden;rotatable=0;points=[[0,0.5],[1,0.5]];portConstraint=eastwest;whiteSpace=wrap;html=1;" parent="RbBr-SZmx4rrmUSp0C_k-21" vertex="1">
          <mxGeometry y="60" width="160" height="26" as="geometry" />
        </mxCell>
      </root>
    </mxGraphModel>
  </diagram>
</mxfile>
